<svg xmlns="http://www.w3.org/2000/svg" width="55" height="20" viewBox="0 0 55 20" fill="none">
  <path d="M54.8772 6.56684L54.3335 6.53154L53.7898 8.89156L53.2462 12.0058L52.7025 11.4356L52.1588 10.8052L51.6151 13.2596L51.0714 11.759L50.5278 11.2931L49.9841 13.1552L49.4404 14.6652L48.8967 13.5694L48.353 13.2067L47.8093 14.1287L47.2657 14.2988L46.722 19.7227L46.1783 16.921L45.6346 15.2952L45.0909 15.516L44.5473 14.4318L44.0036 12.3333L43.4599 10.8153L42.9162 11.1938L42.3725 11.1725L41.8289 11.4275L41.2852 13.6053L40.7415 13.4752L40.1978 14.8067L39.6541 14.7854L39.1105 13.5738L38.5668 11.1795L38.0231 11.7147L37.4794 14.1789L36.9357 16.1786L36.392 14.9327L35.8484 13.8817L35.3047 12.603L34.761 11.809L34.2173 10.9821L33.6736 11.2158L33.13 10.992L32.5863 9.85377L32.0426 7.82422L31.4989 7.77579L30.9552 5.60348L30.4116 7.97668L29.8679 9.35315L29.3242 8.50373L28.7805 8.73718L28.2368 8.99662L27.6932 8.0867L27.1495 10.8627L26.6058 11.7653L26.0621 10.8107L25.5184 10.5677L24.9748 12.184L24.4311 9.02287L23.8874 9.47173L23.3437 7.79867L22.8 10.6867L22.2563 10.5695L21.7127 10.78L21.169 10.0587L20.6253 10.8304L20.0816 8.11493L19.5379 6.64735L18.9943 10.3877L18.4506 17.1338L17.9069 15.7402L17.3632 14.6128L16.8195 14.5935L16.2759 14.2825L15.7322 13.9354L15.1885 14.7159L14.6448 13.2133L14.1011 13.7829L13.5575 13.673L13.0138 15.4541L12.4701 13.77L11.9264 14.3426L11.3827 11.9806L10.839 10.1704L10.2954 6.93143L9.75169 5.80124L9.20801 3.22857L8.66433 6.6027L8.12065 0.791138L7.57697 3.06539L7.03329 6.00622L6.48961 7.01359L5.94593 7.49909L5.40224 7.82438L4.85856 7.66442L4.31488 6.32512L3.7712 7.814L3.22752 7.20866L2.68384 7.87555L2.14016 8.82551L1.59648 9.27349L1.0528 10.2872" stroke="#16C76A"/>
</svg>